<svg width="100" height="100" viewBox="0 0 100 100" xmlns="http://www.w3.org/2000/svg">
  <!-- Tomato -->
  <circle cx="20" cy="20" r="8" fill="#e74c3c" />
  <path d="M20 12v-2" stroke="#c0392b" stroke-width="1" />
  
  <!-- Apple -->
  <path d="M50 15c-4 0-7 3-7 7 0 4 3 7 7 7s7-3 7-7c0-4-3-7-7-7z" fill="#e74c3c" />
  <path d="M50 8v2" stroke="#c0392b" stroke-width="1" />
  
  <!-- Carrot -->
  <path d="M80 20l-8 8" stroke="#e67e22" stroke-width="4" />
  <path d="M72 28l-4 4" stroke="#d35400" stroke-width="2" />
  
  <!-- Egg -->
  <ellipse cx="20" cy="50" rx="6" ry="8" fill="#f1c40f" />
  
  <!-- Milk -->
  <path d="M50 45h12v10h-12z" fill="#ecf0f1" />
  <path d="M50 45l6-5 6 5" fill="#bdc3c7" />
  
  <!-- Honey -->
  <path d="M80 50c0 4-4 8-8 8s-8-4-8-8 4-8 8-8 8 4 8 8z" fill="#f39c12" />
  <path d="M72 50l-4-4" stroke="#d35400" stroke-width="1" />
  
  <!-- Beef -->
  <path d="M20 80c0-4 4-8 8-8s8 4 8 8-4 8-8 8-8-4-8-8z" fill="#c0392b" />
  
  <!-- Leaf -->
  <path d="M50 75c-4 0-7-3-7-7s3-7 7-7 7 3 7 7-3 7-7 7z" fill="#27ae60" />
  <path d="M50 68v-6" stroke="#2ecc71" stroke-width="1" />
  
  <!-- Corn -->
  <path d="M80 75l-4-8 4-8 4 8z" fill="#f1c40f" />
  <path d="M80 67v-6" stroke="#f39c12" stroke-width="1" />
</svg> 