<svg width="100" height="100" viewBox="0 0 100 100" xmlns="http://www.w3.org/2000/svg">
  <!-- Shopping Basket -->
  <path d="M20 30l5-15h10l5 15" stroke="#2ecc71" stroke-width="2" fill="none"/>
  <path d="M15 35h30v15H15z" stroke="#27ae60" stroke-width="2" fill="none"/>
  <path d="M20 50v10" stroke="#27ae60" stroke-width="2"/>
  <path d="M30 50v10" stroke="#27ae60" stroke-width="2"/>
  
  <!-- Farm House -->
  <path d="M60 20l10-10 10 10v20H60z" fill="#e67e22" stroke="#d35400" stroke-width="1"/>
  <rect x="65" y="30" width="10" height="10" fill="#f1c40f" stroke="#d35400" stroke-width="1"/>
  <path d="M70 15v5" stroke="#d35400" stroke-width="1"/>
  
  <!-- Barn -->
  <path d="M80 40l10-10 10 10v20H80z" fill="#c0392b" stroke="#a93226" stroke-width="1"/>
  <rect x="85" y="50" width="10" height="10" fill="#f1c40f" stroke="#a93226" stroke-width="1"/>
  
  <!-- Tractor -->
  <circle cx="30" cy="80" r="8" fill="#3498db" stroke="#2980b9" stroke-width="1"/>
  <circle cx="50" cy="80" r="8" fill="#3498db" stroke="#2980b9" stroke-width="1"/>
  <rect x="25" y="70" width="30" height="10" fill="#3498db" stroke="#2980b9" stroke-width="1"/>
  
  <!-- Silo -->
  <rect x="70" y="70" width="10" height="20" fill="#95a5a6" stroke="#7f8c8d" stroke-width="1"/>
  <path d="M70 70l5-10 5 10" fill="#95a5a6" stroke="#7f8c8d" stroke-width="1"/>
</svg> 