<?xml version="1.0" encoding="UTF-8"?>
<svg id="Layer_2" data-name="Layer 2" xmlns="http://www.w3.org/2000/svg" viewBox="0 0 473 482.317">
  <g id="katman_1" data-name="katman 1">
    <path d="m57.1861,317.1841c-3.4663,2.4951-5.1814,6.5715-8.8174,10.2217,1.2598-3.9374,2.965-6.6736,4.545-9.4458,1.6036-2.8136,3.3632-5.5383,5.1175-8.4048-1.7338-.1307-2.1055,1.3065-2.9209,2.0959-.8398.8132-1.5374,1.7778-2.2639,2.7024-.8072,1.0273-1.5828,2.0797-2.361,3.1294-.6975.941-1.3798,1.8933-2.2058,3.0291-.3941-1.3318.3679-2.1325.7861-2.9638,4.3207-8.5864,9.8423-16.3466,16.5314-23.2289,4.4966-4.6266,8.3246-9.7155,11.6345-15.2246,2.0187-3.36,4.0199-6.7306,6.0625-10.0759,1.9079-3.1248,3.9732-6.1427,6.2346-9.0269,7.5152-9.5849,17.3323-15.541,29.2826-17.3826,5.3988-.832,9.7299-2.8482,13.9244-6.1981,8.4894-6.78,17.6393-12.6207,27.4784-17.2982,6.8835-3.2725,13.9854-5.9949,21.7186-6.1042,6.0045-.085,12.0168.2124,18.0088.7857,4.2772.4093,8.4944,1.2141,12.7085,1.9533.9503-1.4738.5119-2.9428.5791-4.3274.1836-3.7802-.0952-7.5881.6953-11.3302.5148-2.4367.5398-2.5516,3.1165-2.3623,4.0376.2966,8.0642.7487,12.093,1.1588,3.5091.3573,7.0118.7807,10.5238,1.1054,1.2735.1177,2.573.4104,4.1645-.0813.1119-2.2015-.7188-4.2394-1.2809-6.3115-.2393-.882-.9983-1.1423-1.8114-1.2404-2.9428-.3551-5.4379-1.8056-7.8958-3.295-4.3799-2.6538-8.9337-4.8703-13.9216-6.158-4.0243-1.0389-6.9382-3.4953-8.7811-7.2331-1.3885-2.8161-1.6902-5.5395-.5162-8.6425,3.419-9.0367,6.583-18.1703,9.8069-27.28.5955-1.6829,1.4765-3.3145.5471-5.2755-.3176-.67.1553-1.7744.4026-2.6417.8594-3.0132,1.6885-6.0401,2.7009-9.003.9352-2.7371,1.4895-5.543,1.9538-8.3773.3174-1.9378.7342-3.9148-1.0145-5.4792-.5891-3.77-2.6565-6.696-5.2844-9.3135-.7116-.7087-.6607-1.6728-.6763-2.5842-.0939-5.5001.0527-10.9791,1.5934-16.3187,1.1825-4.0984,1.1301-8.3065.7111-12.4556-.3578-3.5441.8233-6.3381,3.0008-8.8955.4162-.4888,1.0978-.8225,1.0747-1.5476-.1325-4.164.9258-8.3076.1341-12.4908-.27-1.4267-.9792-2.3692-2.1858-3.0249-.5431.1534-.9094.4755-1.1438.9849-4.0499,8.8009-10.1652,16.0971-16.8398,22.9669-8.035,8.2701-16.8844,15.6091-26.0745,22.5483-10.5425,7.9604-21.462,15.37-32.7832,22.1734-18.658,11.2124-38.6315,19.047-60.1098,22.7856-14.2714,2.484-28.5774,3.008-42.8101-.4498-6.5303-1.5866-12.6915-4.0541-18.2048-7.9555-10.0756-7.1298-15.2896-16.9568-15.7784-29.2253-.6034-15.143,4.2494-28.5116,13.5906-40.3306,5.3113-6.7202,11.6515-12.3429,18.621-17.2756,13.2336-9.366,27.8484-15.9478,43.0794-21.2665,18.4252-6.4342,37.3776-10.7665,56.5893-14.0209,6.437-1.0904,12.9196-1.9094,19.3637-2.9607,4.6056-.7514,9.1225-.0024,13.6557.5377,8.1841.9751,16.2818,2.4388,24.1618,4.8864,6.9001,2.1432,13.5482,4.8786,18.9857,9.8323,1.08.9839,2.0597.7303,3.4154.505-.1092,2.8282.2396,5.3799,3.48,6.3919,1.3842.4322,1.5465,2.0311,2.0389,3.2014.7226,1.7176,1.3236,3.3634,3.623,3.5286,1.0413.0748,1.9047.8405,2.4713,1.7785,1.703,2.8194,3.3191,5.6747,2.4778,9.1757-.7788,3.2411.0974,6.0827,1.6238,8.9808,3.862,7.3326,8.4926,14.0933,14.1198,20.1706.5213.563,1.1055,1.1737,1.7873,1.4573,1.0617.4416,2.6413-.8788,2.5552-2.1709-.1213-1.8211-.367-3.6431-.6996-5.4387-.4041-2.1812.1738-3.7241,2.1832-4.8991,7.1623-4.1882,14.8961-5.4771,23.0313-4.6594,2.4022.2415,4.0811,1.6941,4.6218,4.1541.505,2.2978,1.7237,3.3089,4.199,3.7328,5.1642.8843,9.4926,3.5826,12.9475,7.5636,1.3808,1.5911,2.5271,3.349,2.896,5.4779.3274,1.8897-.1817,2.7411-2.1095,2.9907-3.2364.419-6.501.6156-9.7488.9527-1.3932.1446-2.8739-.207-4.2479.6532-.231,2.2254,1.0914,3.9594,1.8027,5.8729.388,1.0436.6533,2.0641-.8369,2.4827-.7034.1976-.9824.666-1.1401,1.3845-.3555,1.62-.6777,3.2811-1.3243,4.7926-.5078,1.187-.1086,1.6757.8197,2.1376,1.0525.5237,2.0998,1.0581,3.1567,1.5729,8.1064,3.9491,16.4413,7.3829,24.7079,10.9715,4.9138,2.1331,9.7628,4.3949,14.4428,7.0207,6.3419,3.5581,10.1796,8.9186,11.4421,16.0082.4858,2.7279,1.7334,4.7218,3.6181,6.6746,6.673,6.9138,12.1004,14.7242,16.12,23.4809,1.0377,2.2607,1.8699,4.5904,2.51,6.9968.4435,1.6673.5986,3.3533.4398,5.0503-.303,3.2372-2.4042,4.9232-5.6411,4.3861-1.3921-.231-2.7532-.8043-4.0578-1.3816-5.9858-2.6485-11.6402-5.9182-17.2262-9.3119-1.2187-.7404-2.4617-1.4406-3.4866-2.0386-1.0153.1306-1.3481.7292-1.8014,1.178-.9466.9369-1.794,2.0388-2.0723,3.2805-.7393,3.2984-3.5705,5.6561-3.8743,9.1453-.2378,2.7301-.739,5.4306-1.7047,8.027-.4296,1.155-.0484,1.9988,1.1882,2.4518,2.0842.7636,4.1249,1.6472,6.217,2.3866,2.3354.8255,3.9128,2.2685,5.0279,4.5619,2.455,5.0493,5.1675,9.9739,7.7989,14.9367.343.647.5373,1.4404,1.5232,1.8674,1.0274-1.7481,2.1125-3.5055,3.6671-4.5041.4407-1.0892-1.9427-.6045-.673-1.7481,1.2762-1.1496,3.0983-1.0808,4.8026-1.6149-.5974-.4673-1.0764-.8419-1.7107-1.3382,1.6889-1.246,3.6163-.2381,5.5174-.9573.48-.9563.4141-2.3438,1.1811-3.4141.7846-1.0951,1.8948-1.7732,2.9172-2.5812.602-.4757,1.154-1.0706,1.5666-1.7155.4802-.7504.7834-1.614,1.1635-2.4285.8925.5819,1.2831-.0433,1.7521-.6648.5486-.7269,1.1476-1.4292,1.808-2.0541.5642-.534,1.2449-.9453,1.8769-1.4069.1047-.0765.2222-.1845.3377-.1897,1.4606-.0653.0521-2.4573,1.9502-2.3172.9921.0732,2.0166.6543,3.1083.0653-1.2355-2.0303-3.6584-1.776-5.639-3.0731,3.1685-1.0296,5.9663.1314,8.6685.4854,1.0438-.8054.9641-1.9676,1.3954-2.8878,1.1337-2.4191,2.7681-4.1935,5.5814-4.2669,3.5918-.0935,5.1575-2.5344,4.5034-5.7989-.098-.4891-.1596-.9854-.2848-1.7717,2.7501-.1398,4.2245,2.0588,6.6314,2.9628-.3543-2.7792-2.3752-4.3402-4.0953-6.777,3.4067.8078,5.2927,3.048,7.9093,4.8286.1749-3.8536-.695-7.5099,1.6928-10.6981,0,1.3449-.0292,2.6907.0079,4.0346.0397,1.4383.27,2.836,1.3382,4.2927,1.3648-2.4447,1.8685-5.4285,5.0965-6.4145.0438,1.5732-1.6753,2.8836-.6251,4.4365.2425,0,.5599.1001.6973-.0148,2.9016-2.4284,6.1553-2.7997,9.5469-1.3961,1.9108.7908,3.0958.3469,4.3192-1.2197,1.7668-2.2626,3.7296-4.3745,5.6501-6.5136.695-.7741,1.446-1.5279,2.2835-2.1371,1.2236-.8902,2.3784-.3948,2.4499,1.1425.1699,3.6542.1775,7.3184-.3949,10.9493-.2331,1.4785-1.1638,2.5921-2.1019,3.698-1.1678,1.377-2.2883,2.7943-3.7139,4.5435.7976.5598,1.3223.9451,1.8639,1.305,1.513,1.0052,2.4484,2.3843,2.4488,4.2181.0005,1.9105,1.0146,3.0823,2.4266,4.1899,3.29,2.5809,6.3884,5.4167,9.7695,7.8663,1.9273,1.3965,2.6798,3.0864,2.7645,5.2825.0303.7835.1323,1.58.0358,2.3499-.4647,3.7074.909,6.7072,2.8863,9.8167,4.6036,7.24,10.152,13.5812,16.5106,19.2852,2.5281,2.2679,4.9823,4.6282,7.3453,7.0673,2.1809,2.2511,2.3367,3.7253.517,6.2314-.9211,1.2685-1.2725,2.4537-1.1525,3.9649.1235,1.5569.1354,3.1426-.0095,4.6966-.317,3.401-1.8732,5.0069-5.2417,5.135-1.8462.0702-3.5244.2999-5.2805.9904-2.2451.8827-4.6363.5645-6.8341-.5777-1.6362-.8504-3.2272-1.8451-4.3734-3.2659-1.8194-2.255-4.2369-3.3059-6.8617-4.2399-10.5803-3.7648-21.1354-7.583-32.1091-10.1087-4.6365-1.0671-5.5434-.5659-5.8979,4.2112-.6787,9.1448-2.0606,18.163-4.5969,26.9873-1.4502,5.0457-3.2584,9.9472-6.3763,14.2307-1.4469,1.9877-.9124,3.9732-.3415,5.9789,1.289,4.5289,2.3221,9.0982,2.9354,13.7782.8586,6.5519.1495,12.7061-3.4156,18.4695-2.6089,4.2176-4.6899,8.7641-7.3383,12.9542-1.9456,3.0782-1.8552,6.0707-.1067,8.8336,7.1813,11.3481,14.9821,22.1462,27.8961,27.7588,2.505,1.0887,4.2527,2.8774,5.5215,5.3061,1.7542,3.3582,3.6321,6.6483,4.9361,10.2225.8403,2.303.9485,4.4158-.4147,6.7142-3.4271,5.7781-4.099,12.3002-4.6566,18.8411-.6879,8.07-1.5751,16.1232-2.2285,24.1956-.1996,2.4646-1.0339,4.1627-3.3645,5.2139-4.8217,2.175-8.1389,5.9257-10.8805,10.3829-3.3572,5.4582-7.4058,10.4376-11.4271,15.4213-.3218.3989-.6618.8191-1.35.7943-.8934-.4878-.6956-1.5449-.9323-2.3413-1.6734-5.6323-3.2991-11.2795-4.8555-16.9453-.8355-3.0418-.724-3.1867,2.1091-4.4157,1.9163-.8313,3.8615-1.598,5.8091-2.354,1.2349-.4794,1.7972-1.1756,1.6877-2.6447-.2498-3.3537.9887-6.0923,3.7822-8.1296,1.7349-1.2651,2.7462-3.1557,3.5506-5.0927,4.3804-10.5475,6.216-21.5493,5.5834-32.9393-.2357-4.2446-2.4337-7.3493-6.1808-9.3677-2.0854-1.1232-4.2788-1.9921-6.5804-2.4809-14.2024-3.0168-27.1797-9.1573-40.0467-15.5928-1.2555-.6279-2.4216-1.5081-4.2101-1.7399-.2287,2.4629-.4641,4.7554-.6504,7.0519-.5176,6.3808-1.1733,12.754-1.1176,19.1686.0537,6.1724.7497,12.2324,2.7113,18.1358,1.0681,3.2145,1.9691,6.4957,2.0184,9.949.0367,2.5743-.4621,4.91-2.1779,6.9269-.7586.8918-1.482,1.8506-2.0248,2.8824-2.0293,3.8569-5.1985,5.9411-9.4263,6.9353-9.4893,2.2315-18.3202,6.084-26.4953,11.4246-1.7485,1.1422-3.5746,2.1693-5.3932,3.1997-2.2165,1.2561-4.4614,2.0694-7.0635.9352-1.784-.7775-3.6187-.0696-5.3703.4088-1.8976.5183-3.7298,1.0843-5.7488.5058-1.3082-.3748-2.5903.1884-3.7886.7091-3.2329,1.405-6.4361,2.8785-9.6674,4.2871-1.1691.5097-2.2074,1.4355-3.5868,1.2728-.7881-.7046-.3492-1.5055-.1972-2.2123,1.1279-5.2421,2.663-10.36,4.6114-15.3631,1.0987-2.8213,2.6245-4.8582,6.0307-4.3441,1.3841.2089,2.1382-.7498,3.0446-1.467,2.2396-1.7722,4.5588-2.445,7.1884-.7171,1.5418,1.0131,3.2705.8743,4.9046.2251,2.3635-.9391,4.7908-1.1672,7.3017-1.0512,3.0262.1399,6.0544-.1451,8.8991-1.1433,4.8018-1.6849,9.6039-3.4215,14.2461-5.4942,4.9569-2.2131,6.2201-5.0972,5.0759-10.4398-1.2377-5.7798-3.6203-11.1689-5.875-16.5935-2.1544-5.1835-4.5777-10.2691-5.6538-15.833-.5952-3.0771-1.2471-6.1499-1.6668-9.2527-.7114-5.259-4.2583-8.8358-7.282-12.7354-.6092-.7857-1.6088-.7866-2.4679-1.07-4.3903-1.4478-8.9598-1.6937-13.5138-2.1098-14.9835-1.369-29.8139-3.6295-44.3-7.8257-5.912-1.7125-11.5958-3.9765-17.1067-6.736-8.0582-4.0351-16.1898-7.924-24.3036-11.8474-1.4012-.6776-2.8689-1.2178-4.4317-1.8744-2.0161,2.5855-2.7659,5.6914-4.3239,8.3565-1.6026,2.7415-1.6969,5.6797-1.6035,8.7127.0925,3.0039.0087,6.0126.0658,9.0181.211,11.1156-.2039,22.2033-1.1986,33.2788-.4098,4.5636-.1016,9.1326.7294,13.6601.7248,3.9489,2.3865,7.4228,4.8923,10.5459,4.0966,5.1058,8.596,9.844,13.1579,14.5236,6.0217,6.1772,12.0785,12.3204,18.1449,18.4536,2.4142,2.4408,4.4588,5.0504,5.4378,8.4532,1.0312,3.5842,3.0816,6.5337,5.9584,9.007,2.9689,2.5526,5.6818,5.4021,8.5202,8.1075,2.5915,2.47,4.112,5.5851,5.8398,8.8971-2.2039.5607-4.0174.2884-5.7968.2184-4.3092-.1695-8.6173-.4068-12.9193-.7097-3.2135-.2262-4.2266-1.1612-3.3741-4.1924,1.2492-4.4417-1.5992-6.4892-4.2648-8.7598-.9043-.7702-2.146-.9709-3.3418-.9405-3.9202.0996-6.6237-1.852-8.8273-4.9103-4.5072-6.2555-9.094-12.4541-13.6921-18.6433-.8299-1.1171-1.4504-2.4831-3.1325-3.1707-.9801,2.3939-1.9484,4.7591-2.8842,7.0448-1.4374.0141-1.7045-1.0359-2.1863-1.7085-2.5865-3.612-5.0315-7.327-7.6715-10.8984-1.2798-1.7315-1.8159-3.4631-1.0151-5.4662,1.1412-2.8546.3713-5.0189-1.5824-7.4087-8.4673-10.3569-18.2514-18.9896-30.3273-24.9669-6.7876-3.3598-13.406-7.0641-20.0702-10.6694-2.4105-1.304-4.7746-2.7056-7.0826-4.1833-2.2821-1.4613-3.7917-3.5976-4.565-6.1842-1.1885-3.9752.1155-6.9208,3.8848-8.6955,2.8399-1.337,5.6561-2.703,8.306-4.3934,3.4286-2.1872,6.6554-4.6214,9.3899-7.6576,1.7723-1.9677,3.208-4.1431,3.8021-6.7603.8707-3.8356-.5438-6.507-4.075-8.1575-20.4639-9.5646-32.5311-25.5539-36.5327-47.7395-.5729-3.1763-.6656-6.4134-1.0355-9.4942-1.3691-.3101-1.6892.5249-2.0666,1.1361-2.3895,3.8697-2.8292,8.0721-2.0016,12.4621.734,3.8939,2.2845,7.4737,4.1932,10.9254,2.8457,5.146,5.5947,10.3466,7.7155,15.8428,1.7982,4.6604,3.0981,9.4264,2.7637,14.512-.2697,4.103-1.7795,7.5673-4.9339,10.3458-.9515-.9173.065-1.4457.3554-1.9289,3.3239-5.5314,3.7009-11.2945,1.6217-17.3318-1.3315-3.8661-3.333-7.3671-5.5621-10.7613-3.2906-5.0105-7.1083-9.6661-10.1027-15.4728-.4661,2.2652.3512,3.7899.8303,5.3155,1.2999,4.1396,3.3727,7.9204,5.6961,11.5694,2.571,4.0376,4.171,8.4197,4.5292,13.2108.2783,3.7219-.3002,7.3042-2.0773,10.6239-.8587,1.604-1.9025,3.0792-4.3244,4.357,1.0167-1.5257,1.6234-2.4366,2.2306-3.3473,2.6625-3.9938,3.0705-8.2429,1.4022-12.7078-1.0096-2.7022-2.4089-5.2151-3.8615-7.6975-1.7157-2.9319-3.503-5.8238-5.1486-8.7942-1.7116-3.0895-3.2588-6.2621-3.707-9.8415-.0633-.5056-.2-1.0374-1.0669-1.2191-2.392,6.3147-2.3618,12.6829-.2993,19.0499,1.2252,3.782,1.9329,7.5865,1.5617,11.5587-.325,3.4782-1.517,6.6044-3.8568,9.2396-2.2874,2.5764-5.2737,3.9802-8.6024,4.1786-2.3185.1382-3.0868,1.1847-3.6516,3.1702-1.0022,3.5234-2.5043,6.8694-4.3387,10.0509-3.8981,6.7613-9.1067,12.0733-16.5452,14.9101-.4867.1856-.9589.4098-1.9339-.0341,11.6245-6.2171,17.6687-16.0912,20.2851-29.077-1.5973,1.4891-1.8577,2.9554-2.4355,4.2348-2.8805,6.3795-6.6064,12.1713-11.7194,16.9944-5.4382,5.1299-11.7627,8.5237-19.3008,9.5475,13.6782-5.2485,23.4727-14.3224,29.0881-28.873-1.9833,1.2194-2.3112,2.536-2.9566,3.6086-3.9385,6.5447-8.5341,12.526-14.6173,17.2471-5.8191,4.5161-12.2979,7.265-19.7408,7.7636-7.4268.4974-14.877.8324-22.2342,2.0939-1.8013.3088-3.6107.6008-5.3852,1.0296-4.1737,1.0087-8.1424,2.4762-11.6479,6.1611.295-2.3167,1.3626-3.4437,2.3775-4.561,2.3249-2.5594,5.193-4.387,8.3373-5.7341,1.8692-.8008,3.2474-1.9431,4.4268-3.6354,5.575-7.9988,12.7389-14.1143,21.7617-17.999,2.8732-1.237,5.6909-2.6419,8.4111-4.1864,4.7491-2.6963,8.3171-6.5798,11.4455-12.0818-7.0303,2.0736-12.8696,4.8325-18.5144,8.0432-5.5362,3.149-10.5497,7.003-15.1495,11.4827.1439-1.5726,1.2468-2.4939,2.1521-3.4912,3.091-3.4054,6.7292-6.1739,10.4284-8.8796,8.8103-6.4444,15.7291-14.486,20.3376-24.4333.5473-1.1814.9733-2.4203,1.4263-3.6434.1278-.3449.3343-.7364-.2543-1.2731Zm7.7499-184.5148c4.6463.2036,10.114-.3616,15.5438-1.149,20.7994-3.0166,40.2565-10.0137,58.5268-20.2925,13.6859-7.6996,26.6335-16.5459,39.1174-26.0671,6.6556-5.0761,13.089-10.4205,19.1617-16.186,5.9824-5.6799,11.6204-11.6683,16.3062-18.4949,2.002-2.9166,3.7511-5.972,5.1586-9.2205.4958-1.1443.7637-2.2852-.4477-3.1391-2.1903-1.5439-2.1652-3.7624-1.7328-5.9794.5654-2.8988.1985-5.7042-.3898-8.5241-.1331-.638-.5161-1.3716-.3308-1.9032.9176-2.6333-.9115-3.8005-2.5403-5.0879-4.7955-3.7908-10.3402-6.087-16.1042-7.8747-7.8831-2.4448-15.9791-3.8916-24.1653-4.8623-4.2786-.5073-8.54-1.2127-12.8768-.5211-6.319,1.0078-12.6636,1.8609-18.9724,2.9269-19.2147,3.2465-38.158,7.6086-56.5715,14.0801-13.7263,4.8241-26.9401,10.7215-39.0793,18.8378-8.0906,5.4094-15.4269,11.6623-21.3966,19.4077-8.5156,11.0487-13.0349,23.4615-12.4365,37.5077.4674,10.9728,5.0793,19.8518,13.9849,26.3946,3.7144,2.7289,7.8134,4.7272,12.1614,6.2308,8.4961,2.9381,17.2676,4.0357,27.0831,3.9162Zm235.0485,10.2647c-.2321.2936-.532.5633-.698.8993-2.9419,5.952-5.8484,11.9218-8.8171,17.8604-.4494.899-.472,1.7548-.2359,2.6394.3688,1.382.8784,2.727,1.2305,4.1125.4211,1.6569,1.4074,2.6486,2.9935,3.3046,5.5381,2.2903,11.2506,3.2945,17.2009,2.4064,5.5843-.8335,10.392-3.3729,14.4203-7.2781,2.6649-2.5834,2.403-4.4244-.6623-6.4621-7.5974-5.0503-15.0589-10.2935-22.4117-15.6932-.9292-.6824-1.7421-1.595-3.0202-1.7893Zm37.2485-12.0762c-1.4138-5.2875-4.0135-9.1652-8.2892-11.8783-3.7561-2.3833-7.7556-4.2969-11.804-6.1141-10.2314-4.5926-20.6768-8.7066-30.7162-13.7297-.6923-.3464-1.4887-.9735-2.191-.6384-2.5144,1.1994-4.8403.2416-7.2297-.3469-.6198-.1526-1.2999-.1483-1.9429-.098-.9524.0745-1.7946.4723-2.1907,1.3974-.4478,1.0465.2356,1.7358.9507,2.3324,3.0624,2.5544,5.8408,5.4587,9.3624,7.4384-.5078,3.4623-2.6986,6.3469-2.5088,9.8892.1883,3.5138,1.1653,6.7834,2.186,10.0716,1.3204-.3218,1.6513-1.2602,2.2069-1.9394,1.7399-2.1271,3.656-4.072,5.6715-5.9397,1.2483-1.1568,3.3921-1.6939,3.0764-4.1115-.0374-.2858.6652-.7626,1.106-1.0002,1.9407-1.0464,3.8278-2.3207,6.2411-1.274.5404.2344,1.293.1594,1.9033.0247,5.7239-1.2635,10.6873.6194,14.8533,4.2446,3.2037,2.7879,6.7051,4.828,10.4865,6.61,2.1078.9933,4,2.4447,5.9883,3.6913.761.4772,1.3687,1.2269,2.8401,1.3707Zm-8.5011,27.4607c.2386-.441.4395-.6513.464-.8804,1.0834-10.1777-.9629-19.6264-6.3037-28.4199-1.7509-2.8829-4.06-4.2202-7.2915-4.2935-.7808-.0177-1.5618-.0765-2.342-.0642-2.0595.0325-4.2107-.2253-5.0964,2.4456-.211.6364-1.1076,1.0579-1.7126,1.5491-2.1544,1.7489-3.5435,4.1443-5.2836,6.2424-.3219.3881-.7089.8818-.45,1.4098.8719,1.7786.9664,3.7708,2.9783,5.1763,7.3621,5.1432,14.6021,10.4627,22.0913,15.4264.8504.5636,1.6129,1.3332,2.9463,1.4086Zm5.5802,3.647c.3725.4368.5688.8131.8791,1.009,6.5187,4.1185,13.1669,8.0053,20.2236,11.1476.5947.2648,1.2061.5209,1.8358.6729,1.9115.4613,2.7352-.1278,2.8201-2.0828.1282-2.9531-.9014-5.6618-2.0154-8.3091-3.6378-8.6457-8.9365-16.2132-15.2194-23.1249-.3535-.3888-.7684-.7067-1.6141-.4661-.565,7.5358-2.9196,14.6406-6.9098,21.1534Zm-50.6614,6.7632c-.2872.1072-.5744.2143-.8616.3215.2573,2.7013.6157,5.398.7387,8.1055.0928,2.0427.916,3.3642,2.7424,4.3002,4.5871,2.3509,8.261,5.8357,11.6323,9.6746,1.0304,1.1733,2.1233,2.2944,3.2279,3.399,1.7141,1.714,4.2521,2.1772,6.3752.9685,1.8017-1.0258,3.4887-2.2644,5.1661-3.4914.619-.4528,1.3229-1.3344.7909-1.9861-1.3015-1.5945-.5079-3.4858-.8068-4.8972-.5587-.6043-.9556-.4853-1.3242-.3939-8.3335,2.0657-14.7097-1.0452-19.0211-8.0051-2.2544-3.6393-5.5413-5.6033-8.6597-7.9955Zm-35.3298-96.3331c-2.1214-2.5986-4.5106-5.3602-6.7094-8.2659-2.1232-2.8057-4.05-5.76-6.2619-8.9344-.528,1.6728-.6508,3.1219.0273,3.8936,2.2711,2.5843,1.3988,5.3754.9702,8.1699-.1796,1.1713-.3272,2.2935.1009,3.4604,2.0301,5.5337,3.4519,11.1815,3.6456,17.1318.0787,2.4159,1.2767,3.0795,3.3638,2.0181,1.9559-.9947,3.8744-1.4597,6.0174-1.0555.8247.1555,1.5807-.0959,2.1738-.6441,2.0731-1.9161,4.4432-2.5033,7.1302-1.3919.2368-3.2495.2346-3.2674-2.2748-2.9662-1.293.1552-2.5742.4052-3.865.5812-2.8401.3872-5.6744.8541-8.5274,1.0954-1.9516.1651-2.5778-.5856-2.5349-2.5146.0493-2.2197,1.21-3.949,2.5454-5.5804,1.3131-1.6041,2.6654-3.1759,4.1988-4.9976ZM17.4299,373.8906c1.0658.5867,1.7062.3129,2.3033.1271,4.8477-1.5075,9.7084-2.979,14.5183-4.6002,3.8315-1.2915,7.5123-2.9557,10.9362-5.1432,4.3864-2.8022,7.8453-6.4232,9.9712-11.2305.257-.581.6765-1.1402.2146-1.8286-1.0795.301-1.5488,1.2976-2.2539,2.0021-4.4842,4.4799-9.6417,7.4633-16.1686,7.685-2.7832.0945-5.3425,1.1252-7.7355,2.5079-4.5641,2.6373-8.2809,6.2261-11.7855,10.4803Zm75.2441-53.4152c.4152,3.2056.3408,5.8909-.0412,8.5692-.5526,3.8743-1.7977,7.3538-5.0992,9.7781-.6373.4681-1.2148.9531-1.3623,1.8153-.4101,2.3966-.8604,4.7864-1.3712,7.5999,5.3186-.9458,9.3084-2.9664,11.3916-7.7089,2.4084-5.4827.9059-14.6132-3.5177-20.0535Zm240.1211-162.9605c3.7765-6.2015,5.5974-12.8178,5.3228-19.9948-.0459-1.201-.8984-1.8275-1.6791-2.5111-2.3619-2.0683-4.8651-3.9519-7.5782-5.5321-.5584-.3252-1.1884-1.2022-2.1154-.124,4.8718,8.6821,6.3819,18.1853,6.0498,28.1619Zm-37.3365,17.9098c4.0894,6,9.3619,8.0295,15.0542,6.3433,2.5494-.7551,2.6907-.974,2.6979-4.5022-5.7405.6014-11.4348.3987-17.7521-1.841Zm-10.1917-37.1311c2.3329-2.9427,6.3833-4.0227,6.7565-8.2742.0307-.3496.2815-.8029.5708-.9876,2.3829-1.5211,1.9443-3.8918,2.1424-6.2068-1.2353.0367-1.8663.7327-2.5321,1.3267-2.735,2.4399-4.9692,5.2956-7.0323,8.3162-1.2326,1.8046-1.5571,3.509.0947,5.8258Zm24.0751-19.8209c-.384,3.1762-.3819,3.2303,2.3473,3.1272,1.0074-.038,2.1991.3804,3.2924-.6749-1.8564-1.37-3.4247-2.6238-5.6397-2.4523Zm-21.7416,48.8009c-.3877-1.8378-.536-3.1177-.9502-4.3048-.2857-.8186-1.1439-1.0494-1.9582-.6925-.9146.4009-.9312,1.2418-.5359,1.9598.6219,1.1293,1.4988,2.0676,3.4443,3.0375Z"/>
  </g>
</svg>