<?xml version="1.0" encoding="UTF-8"?>
<svg width="100" height="100" viewBox="0 0 100 100" xmlns="http://www.w3.org/2000/svg">
  <defs>
    <pattern id="farmPattern" x="0" y="0" width="100" height="100" patternUnits="userSpaceOnUse">
      <!-- Farm Silhouette -->
      <path d="M10,80 L20,60 L30,70 L40,50 L50,60 L60,40 L70,50 L80,30 L90,40 L90,80 Z" 
            fill="none" stroke="#4CAF50" stroke-width="0.5" opacity="0.1"/>
      
      <!-- Cowboy Hat -->
      <path d="M25,25 C30,15 40,15 45,25 C40,20 30,20 25,25 Z" 
            fill="none" stroke="#4CAF50" stroke-width="0.5" opacity="0.1"/>
      
      <!-- Horse Silhouette -->
      <path d="M60,70 C65,65 70,65 75,70 C80,75 85,75 90,70 C85,75 80,75 75,70 C70,65 65,65 60,70 Z" 
            fill="none" stroke="#4CAF50" stroke-width="0.5" opacity="0.1"/>
    </pattern>
  </defs>
  <rect width="100" height="100" fill="url(#farmPattern)"/>
</svg> 